<!-- Downloaded from @radix-ui/icons -->
<!-- License https://github.com/radix-ui/icons/blob/master/LICENSE -->
<!-- https://github.com/radix-ui/icons/blob/master/packages/radix-icons/icons/laptop.svg -->
<svg width="14.66" height="14.6" viewBox="-1.66 0 15 15" fill="none" xmlns="http://www.w3.org/2000/svg">
  <path d="M0 12.5166C0 13.9453 0.704102 14.6562 2.11914 14.6562L9.37891 14.6562C10.7939 14.6562 11.498 13.9453 11.498 12.5166L11.498 2.14648C11.498 0.724609 10.7939 0 9.37891 0L2.11914 0C0.704102 0 0 0.724609 0 2.14648ZM1.10059 12.4961L1.10059 2.16699C1.10059 1.4834 1.46289 1.10059 2.17383 1.10059L9.32422 1.10059C10.0352 1.10059 10.3975 1.4834 10.3975 2.16699L10.3975 12.4961C10.3975 13.1797 10.0352 13.5557 9.32422 13.5557L2.17383 13.5557C1.46289 13.5557 1.10059 13.1797 1.10059 12.4961Z" fill="currentColor" />
</svg>