<?xml version="1.0" encoding="utf-8"?>
<svg x="0pt" y="0pt" width="15pt" height="15pt" viewBox="0 0 15 15" xmlns="http://www.w3.org/2000/svg" xmlns:xlink="http://www.w3.org/1999/xlink">
  <g id="Layer 1">
    <path id="Path 1" style="fill:#000000;fill-opacity:1;fill-rule:nonzero;opacity:1;stroke:none;" d="M4.84598,13.7018 C5.16464,13.7018,5.4833,13.7018,5.80196,13.7018 C5.80196,13.7018,5.80196,1.30595,5.80196,1.30595 C5.80196,1.30595,4.84598,1.30595,4.84598,1.30595 C4.84598,1.30595,4.84598,13.7018,4.84598,13.7018 z M9.19728,13.7018 C9.51594,13.7018,9.8346,13.7018,10.1533,13.7018 C10.1533,13.7018,10.1533,1.30595,10.1533,1.30595 C9.8346,1.30595,9.51594,1.30595,9.19728,1.30595 C9.19728,1.30595,9.19728,13.7018,9.19728,13.7018 z M2.36408,14.5 C2.36408,14.5,12.6359,14.5,12.6359,14.5 C13.8822,14.5,14.5,13.7164,14.5,12.1503 C14.5,12.1503,14.5,2.85751,14.5,2.85751 C14.4992,1.29038,13.8814,0.5,12.6352,0.5 C12.6352,0.5,2.36408,0.5,2.36408,0.5 C1.12313,0.5,0.5,1.29135,0.5,2.85751 C0.5,5.9551,0.5,9.05269,0.5,12.1503 C0.501013,13.7168,1.12237,14.5,2.36408,14.5 M2.37624,13.2755 C1.78274,13.2755,1.45598,12.8725,1.45598,12.0812 C1.45598,12.0812,1.45598,2.92564,1.45598,2.92564 C1.45598,2.13526,1.78274,1.7245,2.37548,1.7245 C5.79132,1.7245,9.20716,1.7245,12.623,1.7245 C13.2112,1.7245,13.5433,2.13526,13.5433,2.92564 C13.5433,5.97748,13.5433,9.02933,13.5433,12.0812 C13.5433,12.8725,13.2112,13.2755,12.6238,13.2755 C12.6238,13.2755,2.37624,13.2755,2.37624,13.2755 z"/>
  </g>
</svg>
