<svg version="1.2" xmlns="http://www.w3.org/2000/svg" viewBox="-1 71 97 49" width="15" height="8">
	<title>noun-paint-stroke-5454835-svg</title>
	<style>
		.s0 { fill: currentcolor }
	</style>
	<g id="Layer 1">
		<g>
			<g>
				<g>
					<path fill-rule="evenodd" class="s0" d="m32.2 117.5c0 0.1 0 0.3 0 0z"/>
					<path fill-rule="evenodd" class="s0" d="m76.5 116.4c0 0.1 0 0.1 0 0.2z"/>
					<path fill-rule="evenodd" class="s0" d="m27.7 116.6v0.5c0-0.3 0-0.4 0-0.5z"/>
					<path fill-rule="evenodd" class="s0" d="m18.1 112.5l0.2 0.8-0.1-0.7z"/>
					<path fill-rule="evenodd" class="s0" d="m10.6 112.6c0.3 0.2 0.4 0.1 0.3-0.2-0.1 0-0.2 0.1-0.3 0.2z"/>
					<path fill-rule="evenodd" class="s0" d="m4.4 98.5c-0.2-0.1-0.1 0.3 0 0.6 0.2 0 0.3-0.1 0.3-0.1-0.1-0.1-0.2-0.4-0.3-0.5z"/>
					<path fill-rule="evenodd" class="s0" d="m4.5 106c0.1-0.1 0.1-0.2 0.1-0.4z"/>
					<path fill-rule="evenodd" class="s0" d="m3.1 86.8c-0.2-0.1-0.1 0.3-0.1 0.6 0.2 0 0.3-0.1 0.3-0.1-0.1-0.1-0.2-0.4-0.2-0.5z"/>
					<path fill-rule="evenodd" class="s0" d="m3.1 97.3c0.1-0.1 0.1-0.2 0.1-0.4z"/>
					<path fill-rule="evenodd" class="s0" d="m0.1 111c0.4-1 0.9-2.2 1.1-3-0.6 0.5-0.2-0.2-0.1-0.6l0.1 0.3c0.3-0.3-0.3-1.4-0.7-2.1 0.2 0 0.4-0.1 0.5-0.1v-0.7c0.2 0.7 1.4 1 2.5 1.1 0.7-0.8-0.2-1.5-0.2-2.1 0 0.2-0.1 0.5-0.1 0.7-0.4-0.1 1.3-4.1 1.1-4.8 0 0-2.3 0-1.9-1 0.4-1 0.9-2.2 1.1-3-0.6 0.5-0.2-0.2-0.1-0.6l0.1 0.3c0.3-0.3 0.3-0.8 0.4-1.1 0-0.1 0-0.1 0-0.2v0.1c0-0.1 0.1-0.2 0.1-0.3 0 0.1 0 0.2 0 0.2v-0.1c0 0.2 0 0.3 0 0.4 0 0.2 0 0.3 0.1 0.3v-0.1c0.2 0.1 0.5 0 0.6-0.1v-0.7c0.2 0.7 0.7 0.9 1.2 0.8-0.2-0.7-0.3-1.8-0.8-0.8 0.2-1.4-0.4-0.8-0.4-1.5 0 0.2-0.1 0.4-0.1 0.7-0.4-0.1-1.3-0.4-1.5-1.1 0 0 0.3-0.8 0.8-1.8 0.4-1 0.9-2.2 1.1-3-0.6 0.5-0.2-0.2-0.1-0.6l0.1 0.3c0.3-0.3 0.3-0.8 0.4-1.1 0-0.1 0-0.1 0-0.2v0.1c0-0.1 0.1-0.2 0.1-0.3 0 0.1 0 0.2 0 0.2v-0.1c0 0.2 0 0.3 0 0.4 0 0.2 0 0.3 0.1 0.3v-0.1c0.2 0.1 0.5 0 0.6-0.1v-0.7c0.4 1.4 1.9-2.3 2.3-2.4 0.4-1 0.9 0.2 1.4-0.3 0.8-0.3 0.4-1.1 0.7-1.8 0.5-0.5-0.1 0.9 0.1 0.9l0.6-1.1c-0.4-0.1-0.2-0.5-0.1-0.8 0.5-0.2 1.3-1.6 1.5-0.1 0.7-0.8 0.7-1.4 1-1.4-0.1 0.3-0.3 0.5-0.3 0.8 0.3-0.7 0.1 0.2 0 0.3 0.5 0.6 2.2-2.8 2.3-1.2v-0.3c0.1 1.2 0 2.4 0.3 3.1l0.2-0.6 0.3 0.5c0.2-0.4 0.1-0.7 0.1-0.9 0.5 0.5 1.2-0.2 1.8-0.3l-0.6 3.4c0.5-0.8 1.4-2.4 1.5-1.3l0.2-1.5c1-2.2 0.7 0.9 1.1 0.2l0.5-1.2h-0.5c0.4-0.6 0.7-1 1-1.6 0-0.1 0-0.1 0-0.2 0.1-0.2 0.4-0.3 0.7-0.2v0.7l-0.6-0.2c0.1 0.6 0.3 1 0.7 0.9 0.5-0.2 0.9 0.7 1.7-0.6l0.2 1.2 0.6-0.8v-1c-0.6 0.1-1.7-0.3-2.5-0.3v-0.5c0.5 0 1 0.4 1.3 0.3 0.1-0.2 0.5-1.2 0.2-1.9l0.3 1c1.5 0.1 1.5 0.1 3.1-1.1l-0.1 0.5c0.3 0.3 0.6 0.6 0.7-0.2 0.9-0.2 1.9-0.8 2.5-2.1l0.1 1.2c0.2-0.1 0.5-1.8 0.6-0.2l0.4 0.5c0.3-0.1 0.4 0.6 0.8-0.1 0 0 0-0.1 0.1-0.1v0.1c0.6-0.5 0 1 0.7 0.4 0.2-0.8 0.3 1.5 0.6 1.2l0.3-1.7c0.6-1 0.7 0.7 1.6 0.7 0.4-0.6 0.6-2 0.3-3.3 0.4 1.5 0.2 1 0.7 1.7 0.1-0.6 0-0.8-0.1-1.3 0.4-0.6 0.3 0.2 0.5 0.4 0-0.2 0-0.4-0.1-0.6l0.1 0.6h0.1c0.1 1.2 0.3 3.1 0.4 3.2l-0.1 0.4c0.4 0.6 0.8 0.9 1.2 0.3v-0.6l0.5 0.3v-0.8l0.7 0.2-0.1 0.2c0.2 0.1 0.7 0.4 1-0.1v-0.4c0.8-1.3 1.5 0.4 2.5 0.5l-0.1-0.9c0.3-0.9 0.1 1.3 0.5 0.9v-1.1c0.4 1.4 0.4-0.3 0.7-0.8l-0.1 1.4 0.3-0.2c0.5-0.5 0.3-1.8 0.2-2.5l0.3 1.1 0.1-1.2c0.3 1.4 0.2-0.2 0.7 0.5 0-0.5-0.1-0.7 0.1-0.9l0.6 1.7-0.4-0.8 0.1 1.8c0.5 1.4 0.6-0.2 0.9 0.3l-0.2-0.5c0.5 0.4 0.5-0.3 0.8-0.7-0.1 0.3-0.2 0.8 0 1.1 0.2 0.1 0.1-0.6 0.2-0.8 0 1.2 0.4 1.8 0.8 1.3 0-0.2 0-0.3 0-0.4 0.1 0.2 0.1 0.5 0.3 0.2l-0.1-1.3 0.3 1.3c0.2-0.4 0.5 0.6 0.4-0.3l-0.1-0.3 1.4-0.3v-1.1c0.2 1.5 0.8-0.6 0.8 1.3 0.3-1 1.1 0.7 0.9-1.4 1-0.2 1.5 1.8 2.6 0.8 0.4-1.8 1.5-1.2 2.3-1.4 1.5 0.7 2.4 1.4 3.9 1.9 0.9-2.5 2.2 0.8 3.2-0.6l0.3 1c0.6-1.6 1.6 0.3 2.5-1.2 0.2 0.4 0.3 0.6 0.4 0.6 0 0-0.1 0.2-0.1 0.8 0.3-0.4 0.8 0.1 0.7-1.1l-0.1-0.1c0-1.2 0.8 0.6 1.1-0.5l-0.2 1.3 0.5-0.2-0.1-0.3c2.1 2.9 3.1-1.3 5 1.4-0.3-1.4 0.4 0.8 0.4-0.8 0.5-1.8 0.9 0 1.2 0.8 0.1-0.2 0.2-0.2 0.3-0.4-0.1 0.2 0 0.4 0.1 0.4-0.1 0.2-0.1 0.3-0.2 0.3 0 0.1 0 0.1 0 0.2l0.7-0.2c-0.4-2 0.5 1.7 0.1 0 1.9-1.5 4.3 0.1 6.5-0.6l-0.1 0.5c0.6-0.1 1.2 0.5 1.7-0.3 0.4-0.8 0.9 1.3 1.1 1.4 0.4 0.9 0.9-0.9 0.7-0.8 0.5 0.3 0.9 2.1 1.6 1.3 0.3-1.7 1.8 1.7 1.9-0.2v0.2c0.9-1.3 1.7 1 2.7-0.1q0 0 0-0.3c0.6 2 1.4 0.7 1.9 2.6l-0.3 7.2c-0.4 1.1-1.5 4.5-1.8 5.5 0.2 0.7-1.9 3.2-1.7 3.9l1.1 4.5c-0.3 1.1-0.7 2.2-1 3.2 0.2 0.7 1.2 2.8 1.4 3.5l-3.6 6.1c-0.6 1.7 0.7 2.2 0.2 3.9-1.3-0.5-2.8-0.9-4.2-1.3l-3.5 1.9-8.5-0.8-0.6-1.4c-1.7 2.5-3.8-0.4-5.7 1.4v-1.2c-0.5-0.1-0.5 0.7-0.6 0.9-4.8-0.3-9.7-1.9-14-0.3-0.4 0.8-1.7 0.4-2 1.2-1.4-1.5-2.9-1.5-4.3-1.3l0.1 0.1-0.7-0.2q0 0.2 0 0.3c-0.8-1.1-1.9 0-2.8 0.5l0.1 0.1c-5.3 0.3-10.2-1.9-15.4 0-2.4 2.1-5.3-0.6-8 1.2-0.5 1.2-5.8 1.3-6.3 0.8l0.5-1.4c-2.1-0.6-2 1.5-3.8 0.3l0.1 0.3c-0.2 0.4-0.6-3-3.2 1.3v0.1c-0.1 0-0.1-0.3-0.3 0.1l0.4-1c-0.3-0.4-0.6-1-1-1.1-0.1 0.2-0.1 0.5-0.1 0.7l-1-0.2-0.2 1c-0.3-0.5-0.3-2.6-0.9-1.3 0.2-1.8-0.4-4.5-0.4-4.9 0 0.2 0 3.4-0.1 3.7-0.4-0.1-2.5-3.5-2.8-4.2 0.1 0.1-0.6-0.8-0.2-1.7zm7.6-17.2c-0.2-0.2-0.3-0.4-0.5-0.4 0 0.1-0.1 0.3-0.1 0.4 0.2-0.2 0.4-0.1 0.6 0zm-0.8 0.3c0 0 0.1 0 0 0l-0.8-0.2-0.1 0.4c0.4 0 0.8-0.2 0.9-0.2zm-0.5 11.4c-0.2-0.2-0.3-0.4-0.5-0.4 0 0.1-0.1 0.3-0.1 0.4 0.2-0.2 0.4-0.1 0.6 0zm-0.8 0.3l-0.8-0.2-0.1 0.2q0.8 0 0.9 0z" fill="#f0f"/>
					<path fill-rule="evenodd" class="s0" d="m0.3 86.2c-0.1-0.1-0.1 0.1-0.1 0.3 0 0.1 0 0.2 0 0.4v-0.1c0 0 0 0 0 0.1 0-0.3 0.1-0.5 0.1-0.7 0.1 0 0 0 0 0z"/>
					<path fill-rule="evenodd" class="s0" d="m5.7 73.1c0-0.5 0-0.3 0 0z"/>
					<path fill-rule="evenodd" class="s0" d="m3.3 74.8c-0.1-0.1-0.1-0.4-0.2-0.6-0.2-0.1-0.1 0.3 0 0.6 0.1 0 0.2 0 0.2 0z"/>
					<path fill-rule="evenodd" class="s0" d="m0.9 84.9c0.1-0.1 0.1-0.2 0.1-0.4z"/>
				</g>
			</g>
		</g>
	</g>
</svg>