<svg width="15" height="15" fill="none" xmlns="http://www.w3.org/2000/svg"><path d="M15 7.5c0 4.099-3.409 7.5-7.505 7.5C3.41 15 0 11.599 0 7.5S3.4 0 7.486 0C11.582 0 15 3.401 15 7.5zM9.492 4.572l-1.997 1.98-1.969-1.97a.659.659 0 0 0-.473-.186.67.67 0 0 0-.678.678c0 .177.074.344.195.474L6.53 7.51 4.57 9.47a.701.701 0 0 0-.195.474c0 .39.306.697.678.697a.657.657 0 0 0 .492-.195l1.95-1.97 1.96 1.97a.65.65 0 0 0 .483.195.69.69 0 0 0 .697-.697.64.64 0 0 0-.205-.483L8.47 7.509l1.97-1.97a.621.621 0 0 0 .204-.483.678.678 0 0 0-1.152-.484z" fill="#000" fill-opacity=".7" clip-rule="evenodd" fill-rule="evenodd" style="border-radius:50%"/></svg>