<?xml version="1.0" encoding="utf-8"?>
<svg x="0pt" y="0pt" width="512pt" height="512pt" viewBox="0 0 512 512" xmlns="http://www.w3.org/2000/svg" xmlns:xlink="http://www.w3.org/1999/xlink">
  <g id="Layer 1">
    <path id="Path" style="fill:#fffefe;fill-opacity:1;fill-rule:evenodd;opacity:1;stroke:#fffefe;stroke-linecap:round;stroke-linejoin:round;stroke-miterlimit:10;stroke-opacity:1;stroke-width:1;" d="M253.163,6.09137 C403.57,6.09137,525.499,128.021,525.499,278.428 C525.499,428.836,403.57,550.765,253.163,550.765 C102.755,550.765,-19.1744,428.836,-19.1744,278.428 C-19.1744,128.021,102.755,6.09137,253.163,6.09137 z"/>
    <g id="Group">
      <path id="Path 0" style="fill:#000000;fill-opacity:1;fill-rule:nonzero;opacity:1;stroke:none;" d="M443.48,317.773 C434.815,314.322,410.113,306.27,380.447,310.858 C363.218,313.556,265.513,329.317,259.345,329.317 C253.162,329.317,253.162,329.317,253.162,329.317 C253.162,329.317,253.162,329.317,246.978,329.317 C240.795,329.317,143.107,313.556,125.878,310.858 C96.2115,306.27,71.5096,314.322,62.8452,317.773 C26.4857,332.318,38.6815,366.273,46.7787,378.861 C57.8963,396.142,100.239,441.548,141.944,446.837 C196.312,453.752,243.278,414.588,253.162,414.588 C263.047,414.588,309.998,453.752,364.381,446.837 C406.086,441.548,448.429,396.143,459.546,378.861 C467.644,366.273,479.853,332.318,443.48,317.773 z M140.2,393.841 C122.63,377.458,125.565,361.063,146.071,359.701 C166.576,358.326,201.162,366.551,201.744,377.458 C203.191,404.776,157.784,410.237,140.2,393.841 z M366.125,393.841 C348.541,410.237,303.135,404.776,304.581,377.458 C305.163,366.55,339.749,358.326,360.254,359.701 C380.759,361.063,383.709,377.458,366.125,393.841 z"/>
      <path id="Path 1" style="fill:#000000;fill-opacity:1;fill-rule:nonzero;opacity:1;stroke:none;" d="M462.425,207.539 C440.999,86.172,317.387,56.9772,253.162,56.9772 C188.953,56.9772,65.3128,86.172,43.8999,207.539 C29.0668,210.62,20.828,225.984,20.828,233.666 C20.828,241.348,20.828,284.36,20.828,284.36 C175.718,284.36,330.607,284.36,485.497,284.36 C485.497,284.36,485.497,241.348,485.497,233.666 C485.497,225.984,477.258,210.62,462.425,207.539 z"/>
    </g>
  </g>
</svg>
